<svg width="0" height="0" class="hidden">
  <symbol xmlns="http://www.w3.org/2000/svg" viewBox="0 0 32 32" id="logo-asf">
    <path d="M17.523 6.407q.037-.093.288-.094h.252v.616l.359.04c.198.022.598.082.891.134s.781.177 1.087.279.836.329 1.18.506.853.489 1.132.694.741.613 1.026.906.699.804.92 1.136.512.841.646 1.132.316.756.404 1.035.204.757.257 1.062.097.688.097.851v.297h.632l-.038.532-.576.037-.04.513c-.022.282-.098.752-.168 1.044s-.198.725-.283.962-.295.701-.465 1.031-.489.839-.709 1.131-.642.764-.939 1.048-.82.701-1.164.927-.874.517-1.178.649-.747.297-.984.367-.666.171-.954.224a6 6 0 0 1-.825.098h-.302l-.038.656h-.5l-.011-.625-.526-.044a10 10 0 0 1-1.276-.234 7.3 7.3 0 0 1-1.563-.592c-.447-.222-1.054-.586-1.349-.81s-.765-.647-1.043-.941-.667-.779-.863-1.077-.479-.804-.629-1.124c-.149-.32-.343-.827-.43-1.128s-.2-.8-.25-1.111a7 7 0 0 1-.092-.783v-.219l-.625.043V15h.608l.043-.479c.024-.264.087-.693.141-.953s.182-.713.285-1.005.309-.77.458-1.063.383-.698.521-.902.413-.556.611-.781.558-.586.8-.801.608-.505.815-.644.614-.375.906-.523.789-.357 1.104-.462.807-.234 1.094-.285.691-.111.899-.133l.378-.04-.025-.214a.9.9 0 0 1 .011-.308m-.367 1.071c-.103.012-.398.053-.656.091s-.736.153-1.063.257c-.327.103-.844.312-1.15.463s-.774.432-1.041.624-.69.551-.94.797-.617.667-.817.935-.503.769-.676 1.114-.383.856-.468 1.137-.198.761-.251 1.066-.096.664-.096.797v.242h1.669l.039-.453c.022-.249.092-.636.158-.859s.192-.586.282-.806.296-.614.458-.875c.164-.264.545-.726.86-1.041a6.5 6.5 0 0 1 1.096-.892c.292-.179.743-.407 1.003-.508s.71-.226 1-.28.627-.112.747-.129l.219-.031v-.844c0-.713-.015-.842-.094-.834l-.281.031zm.907.802v.84l.234.037c.129.02.403.065.609.1s.558.122.781.194.575.215.781.318.53.286.719.406.565.433.835.695.611.644.758.851.366.572.486.813.29.663.377.939.192.733.233 1.016l.075.514h1.611V14.8c0-.112-.042-.461-.093-.776s-.166-.804-.255-1.086-.259-.725-.377-.984-.375-.713-.571-1.007c-.196-.295-.582-.773-.858-1.062s-.71-.68-.965-.87-.721-.48-1.036-.646-.865-.397-1.224-.514c-.358-.117-.849-.242-1.089-.278s-.571-.081-.734-.1l-.297-.034v.84zm-1.46 1.447c-.236.051-.63.172-.877.27s-.616.277-.822.397-.568.383-.806.584-.584.562-.769.803-.46.691-.61 1c-.151.309-.329.787-.396 1.063s-.14.648-.162.828l-.04.328h1.692v-.216c0-.119.07-.435.155-.703s.261-.666.39-.885c.13-.219.433-.584.674-.813s.633-.518.876-.645c.241-.126.607-.273.813-.326s.473-.111.593-.129l.219-.033V9.625l-.25.005a4.6 4.6 0 0 0-.678.097zm1.46.741c0 .758.004.781.141.81l.503.1c.199.039.581.18.849.313.277.139.662.404.894.617.224.205.526.556.672.779s.334.606.419.85.171.584.191.754l.037.309h1.679l-.044-.359c-.024-.198-.111-.592-.192-.877s-.258-.735-.391-1-.374-.658-.535-.872-.466-.547-.679-.739-.583-.473-.824-.623-.648-.356-.906-.459-.686-.231-.951-.285a5 5 0 0 0-.672-.099h-.19v.78zm-.719 1.327c-.069.012-.252.053-.406.092s-.478.168-.718.287c-.288.143-.58.36-.859.64a3 3 0 0 0-.643.887 4.7 4.7 0 0 0-.303.866l-.082.402.474.031c.395.026.478.05.496.146a.8.8 0 0 1-.016.266c-.036.142-.065.151-.474.151h-.436v.176c0 .097.045.329.1.516s.188.508.297.715.382.56.607.787c.261.262.557.485.815.612.223.11.559.24.746.29s.397.091.466.092c.114.001.125-.041.125-.484v-.485h.5l.036.986.294-.035c.162-.019.491-.108.733-.198s.618-.298.838-.463.535-.48.7-.7.371-.588.456-.819.173-.555.195-.72l.04-.3h-1.043v-.5l.516-.018c.485-.017.516-.026.515-.156 0-.076-.042-.293-.092-.481s-.183-.525-.296-.747a3.7 3.7 0 0 0-.611-.813c-.223-.225-.575-.498-.781-.607s-.53-.239-.719-.291a7 7 0 0 0-.547-.129l-.203-.035v1.004l-.531-.038-.008-.456c-.004-.251-.018-.463-.031-.473s-.08-.007-.148.005zm-.146 1.719c-.114.038-.344.192-.511.342s-.366.404-.444.565c-.1.207-.141.403-.14.671.001.255.049.486.145.708.086.197.255.428.42.573.152.134.406.287.565.341s.405.098.548.098.387-.044.544-.097.402-.197.545-.32.334-.367.425-.543c.128-.248.165-.413.167-.728.001-.295-.036-.485-.137-.694-.076-.158-.24-.388-.363-.511s-.327-.274-.452-.335c-.137-.067-.402-.117-.666-.126-.241-.008-.531.016-.645.055zM10 15.789c0 .142.043.507.097.813s.195.85.316 1.211.333.867.472 1.125.383.652.542.875.509.635.777.914.733.683 1.033.896c.3.214.799.51 1.108.659s.781.342 1.049.43.731.203 1.031.255.672.095.826.096h.281l-.023-1.593-.56-.075c-.308-.041-.775-.147-1.037-.235s-.669-.257-.904-.375-.654-.386-.932-.596-.657-.555-.842-.769-.422-.515-.527-.67-.282-.464-.394-.688-.268-.591-.344-.816-.173-.619-.214-.875-.087-.55-.101-.653l-.027-.188h-1.625v.257zm2.918-.24-.8.018.041.295c.022.162.08.47.127.685s.171.609.274.877.326.697.495.954.5.66.735.895.637.565.892.733.676.393.936.502.726.249 1.036.313.634.117.72.117l.156.001-.026-1.656-.299-.044c-.164-.024-.493-.106-.729-.182s-.631-.27-.876-.43c-.245-.161-.562-.42-.705-.576s-.36-.435-.482-.62-.293-.525-.38-.757-.176-.577-.199-.767c-.022-.19-.058-.352-.079-.359s-.398-.006-.838.004zm9.672-.002-.816.019-.079.47c-.053.318-.171.654-.365 1.041a3.4 3.4 0 0 1-.699.983c-.227.227-.581.514-.788.639s-.555.288-.776.362a4.3 4.3 0 0 1-.703.17l-.302.036v1.684l.359-.045c.197-.025.57-.098.828-.163s.729-.246 1.046-.402.788-.452 1.046-.657.641-.588.849-.851c.209-.262.49-.697.625-.966s.314-.722.396-1.007.17-.707.195-.94.035-.416.022-.408-.39.022-.839.033zm1.315.391c-.024.223-.095.608-.158.855s-.201.654-.305.906c-.105.252-.326.669-.492.927s-.468.649-.672.869-.548.534-.765.698-.64.425-.941.581-.796.355-1.099.443-.744.178-.98.2l-.429.04v1.607h.287c.158 0 .564-.056.902-.125s.863-.212 1.166-.318.762-.307 1.02-.446.652-.382.875-.539.673-.554 1-.882.726-.796.888-1.039.423-.707.581-1.031.355-.813.438-1.088.195-.75.247-1.055.096-.657.096-.781v-.226H23.95l-.043.406z"></path>
    <path fill="#0080c7" d="M28.039 5.438c.026.052.137.234.246.406s.333.58.497.906.419.893.566 1.259.354.965.459 1.331.246.953.313 1.303.156.929.197 1.285c.047.407.063 1.15.043 2-.023.989-.067 1.554-.164 2.102-.073.413-.219 1.058-.323 1.436s-.332 1.066-.506 1.531-.476 1.169-.673 1.564-.517.976-.712 1.291-.557.835-.803 1.156-.788.923-1.203 1.336-1.078.993-1.474 1.288-.961.681-1.257.858-.859.474-1.25.66-1.039.451-1.44.589-1.047.321-1.438.407-1.089.22-1.553.296c-.681.113-1.103.141-2.188.144-.786.002-1.577-.029-1.906-.076-.309-.044-.885-.152-1.278-.24s-1.011-.258-1.372-.379-.905-.328-1.21-.46-.786-.367-1.071-.522-.768-.447-1.075-.648-.839-.593-1.183-.87-.963-.852-1.376-1.277-.996-1.099-1.295-1.498-.718-1.017-.932-1.375-.548-1.002-.744-1.432-.472-1.139-.614-1.575-.312-1.027-.378-1.312a25 25 0 0 1-.235-1.206c-.09-.539-.115-1.027-.115-2.263 0-.866-.018-1.555-.041-1.531s-.101.339-.174.7-.188 1.129-.256 1.707-.123 1.272-.123 1.543.056.972.124 1.557.184 1.339.256 1.675.23.935.349 1.33c.12.395.344 1.028.498 1.406s.437.982.629 1.342.503.894.692 1.188.558.814.82 1.157a17.6 17.6 0 0 0 2.57 2.609c.327.26.903.674 1.281.92s1.081.641 1.563.877 1.152.532 1.491.656c.339.125.968.323 1.397.441s1.165.273 1.634.344.993.158 1.165.193c.174.035.854.052 1.531.039.706-.014 1.521-.069 1.938-.132.395-.059 1.042-.18 1.438-.268s1.084-.28 1.531-.428 1.116-.401 1.486-.564 1.015-.492 1.432-.731 1.028-.626 1.357-.86.913-.696 1.296-1.026.933-.861 1.22-1.179.708-.818.935-1.11.576-.784.776-1.094c.199-.309.525-.872.723-1.25s.49-1.01.649-1.405c.158-.395.386-1.054.505-1.465s.285-1.115.367-1.564.184-1.21.225-1.691c.045-.52.059-1.217.036-1.719-.022-.464-.094-1.211-.16-1.661s-.195-1.121-.286-1.492c-.091-.372-.277-.998-.413-1.392s-.383-1.021-.55-1.393-.5-1.009-.741-1.416-.609-.978-.818-1.27-.509-.672-.667-.844-.266-.27-.24-.219z"></path>
    <path fill="#ff161f" d="M13.487.409c-.019.019-.382.105-.807.191s-1.118.271-1.539.411-1.153.444-1.625.676-1.112.589-1.421.794-.773.543-1.031.752-.666.573-.906.811-.596.613-.79.834c-.194.222-.513.628-.71.903s-.515.766-.707 1.092c-.192.325-.486.902-.654 1.281s-.413 1.013-.545 1.408-.313 1.073-.401 1.506-.195 1.213-.236 1.734a10 10 0 0 0-.001 1.869c.041.507.146 1.273.233 1.703s.284 1.157.438 1.616c.153.459.446 1.176.65 1.594s.565 1.054.802 1.415c.236.361.577.839.756 1.063s.571.656.87.961.769.745 1.044.978.776.608 1.112.833.941.576 1.344.781c.402.204 1.002.472 1.332.595s.935.308 1.344.41c.409.103 1.081.234 1.494.291.464.064 1.167.104 1.844.104.685 0 1.373-.039 1.841-.105.411-.058 1.118-.2 1.571-.316s1.075-.308 1.381-.426.738-.306.96-.417.628-.349.903-.529c.275-.179.648-.46.828-.623s.328-.317.328-.341-.218.062-.484.192a13.5 13.5 0 0 1-2.153.801 22 22 0 0 1-1.094.257c-.444.091-.972.136-1.906.162-.841.023-1.507.01-1.906-.039-.338-.041-.933-.145-1.323-.232s-1.037-.269-1.438-.407-1.094-.429-1.541-.648-1.066-.566-1.375-.771-.83-.595-1.156-.867-.807-.732-1.069-1.022-.629-.738-.818-.996-.487-.71-.664-1.004-.445-.815-.596-1.156-.361-.889-.466-1.218-.234-.78-.285-1.005a22 22 0 0 1-.23-1.372c-.116-.827-.131-1.146-.102-2.245.027-1.046.062-1.415.191-2.013.087-.402.259-1.035.383-1.406s.38-.998.57-1.394.551-1.028.804-1.406.694-.954.982-1.279c.287-.325.817-.855 1.178-1.178s.989-.81 1.398-1.084c.408-.273 1.013-.633 1.344-.798s.881-.406 1.223-.533.932-.313 1.313-.411.994-.223 1.365-.277 1.081-.1 1.578-.101 1.136.012 1.419.031c.496.033.506.031.266-.051-.137-.047-.517-.133-.844-.192s-.643-.132-.702-.163-.878-.056-1.818-.056-1.725.015-1.743.034z"></path>
    <path fill="#00b66d" d="m16.031 2.787-.673.092a11 11 0 0 0-1.094.224c-.335.087-.848.251-1.142.364s-.743.311-1 .44-.706.389-.998.579-.728.507-.969.704c-.241.198-.665.594-.943.882s-.678.756-.889 1.041-.537.791-.726 1.125-.455.888-.593 1.232-.32.906-.405 1.25-.191.85-.234 1.125-.077.95-.075 1.5c.003.737.039 1.192.137 1.73.073.402.231 1.029.351 1.394s.332.908.472 1.207.385.755.544 1.013.463.694.677.969c.213.275.621.731.907 1.014s.53.504.542.492-.128-.221-.311-.465-.468-.67-.633-.948-.411-.76-.546-1.071-.326-.837-.425-1.169-.223-.871-.277-1.198-.116-.875-.138-1.219-.009-.959.03-1.367c.038-.408.127-.999.197-1.312s.197-.781.283-1.039a12.7 12.7 0 0 1 1.097-2.282c.154-.241.456-.654.669-.918s.632-.71.932-.991.837-.706 1.194-.945.849-.535 1.092-.658.682-.315.976-.428.87-.282 1.283-.376c.614-.14.948-.177 1.844-.2.919-.024 1.217-.008 1.867.103.425.072 1.062.229 1.416.347s.937.356 1.297.529.956.515 1.323.76.936.703 1.264 1.017.819.866 1.09 1.228.659.983.861 1.381.469 1.037.593 1.421.226.739.226.789.03.11.067.133c.047.029.054-.051.024-.262-.024-.167-.097-.571-.162-.897s-.207-.861-.314-1.188-.313-.847-.457-1.156-.419-.816-.612-1.125-.537-.794-.764-1.076-.658-.741-.957-1.018-.797-.686-1.106-.907c-.309-.222-.928-.584-1.375-.805s-1.072-.487-1.389-.592-.88-.25-1.25-.322a10 10 0 0 0-1.642-.154c-.533-.012-1.053-.01-1.156.005z"></path>
  </symbol>
  <symbol xmlns="http://www.w3.org/2000/svg" viewBox="0 0 26 32" id="logo-issf">
    <path fill="#2b2a29" d="M17.713 12.685a4.948 4.948 0 1 1-9.896-.002 4.948 4.948 0 0 1 9.896.002M4.606 31.913h1.549v-4.997H4.606zm2.388-1.652 1.469-.092q.048.357.195.545.238.304.682.304.33 0 .51-.155a.47.47 0 0 0 .179-.359.46.46 0 0 0-.17-.348q-.171-.154-.792-.291-1.015-.228-1.449-.607a1.22 1.22 0 0 1-.436-.966q0-.385.224-.727.224-.343.672-.54.449-.195 1.228-.195.959 0 1.462.356.502.357.598 1.134l-1.455.085q-.059-.338-.244-.491c-.185-.153-.296-.154-.513-.154q-.27 0-.406.114a.35.35 0 0 0-.137.279q0 .118.112.214.11.1.52.185 1.012.218 1.45.441c.438.223.505.332.637.553q.2.332.2.74 0 .481-.266.887a1.67 1.67 0 0 1-.744.615q-.478.21-1.205.211-1.274 0-1.766-.491-.489-.492-.555-1.248zm5.043 0 1.469-.092q.048.357.196.545.238.304.682.304.33 0 .51-.155a.47.47 0 0 0 .179-.359.46.46 0 0 0-.17-.348q-.171-.154-.79-.291-1.017-.228-1.45-.607a1.22 1.22 0 0 1-.436-.966q0-.385.224-.727.223-.343.672-.54.449-.195 1.228-.195.959 0 1.462.356.502.357.598 1.134l-1.455.085q-.059-.338-.244-.491c-.185-.153-.296-.154-.513-.154q-.27 0-.406.114a.35.35 0 0 0-.137.279q0 .118.112.214.11.1.52.185 1.012.218 1.45.441c.438.223.505.332.637.553a1.4 1.4 0 0 1 .201.74q0 .481-.266.887a1.66 1.66 0 0 1-.744.615q-.478.21-1.205.211-1.275 0-1.766-.491-.489-.492-.555-1.248zm5.318-3.345h3.82v1.074h-2.267v.872h1.936v1.009h-1.936v2.042h-1.552z"></path>
    <path fill="#fecb2c" d="M1.801 12.224c.272-5.632 4.79-10.15 10.423-10.423V0C5.597.276.276 5.597 0 12.224z"></path>
    <path fill="#e32a31" d="M13.305 1.801c5.632.272 10.15 4.79 10.423 10.423h1.801v-.012C25.247 5.592 19.927.275 13.305 0z"></path>
    <path fill="#2d7cbf" d="M12.224 23.728c-5.632-.272-10.15-4.79-10.423-10.423H0c.276 6.627 5.597 11.948 12.224 12.224z"></path>
    <path fill="#229655" d="M23.728 13.305c-.272 5.632-4.79 10.15-10.423 10.423v1.801c6.622-.276 11.942-5.591 12.224-12.212v-.012zM5.719 12.224a7.064 7.064 0 0 1 6.505-6.55V3.871a8.86 8.86 0 0 0-8.307 8.353z"></path>
    <path fill="#2d7cbf" d="M13.305 5.674a7.065 7.065 0 0 1 6.505 6.55h1.803a8.86 8.86 0 0 0-8.307-8.353z"></path>
    <path fill="#fecb2c" d="M19.803 13.305a7.065 7.065 0 0 1-6.498 6.454v1.803a8.86 8.86 0 0 0 8.302-8.257z"></path>
    <path fill="#e32a31" d="M12.224 19.759a7.065 7.065 0 0 1-6.498-6.454H3.922a8.864 8.864 0 0 0 8.302 8.257z"></path>
  </symbol>
  <symbol xmlns="http://www.w3.org/2000/svg" viewBox="0 0 50 32" id="logo-aze-moyas">
    <path fill="#00bd69" d="M39.75 0H9.938C4.45 0 .001 4.449.001 9.937s4.449 9.937 9.937 9.937h29.616c5.236 0 9.727-3.973 10.107-9.196.018-.222.028-.48.028-.74 0-5.489-4.449-9.938-9.938-9.939z"></path>
    <path fill="#467082" d="M10.898 25.696h1.494v.166q0 .711-.402 1.127c-.402.416-.636.423-1.093.423s-.843-.153-1.14-.444-.448-.69-.448-1.195.153-.905.444-1.2.675-.44 1.14-.44h.039c.346 0 .666.111.927.299l-.005-.003c.261.196.445.483.507.812l.001.008-.525.085a.87.87 0 0 0-.315-.549l-.002-.001a1 1 0 0 0-.592-.198l-.041.001h.002l-.044-.001c-.286 0-.544.118-.729.307q-.289.308-.29.884c-.001.576.098.675.29.88.185.19.443.308.728.308l.047-.001h-.002l.04.001a.97.97 0 0 0 .601-.207l-.002.002c.167-.133.274-.338.312-.613h-.943zm4.724-1.123q.442.443.444 1.205c.002.762-.145.905-.433 1.196s-.671.44-1.132.44-.819-.141-1.08-.423-.398-.653-.398-1.127v-.29h2.524a1 1 0 0 0-.316-.725 1.04 1.04 0 0 0-.694-.265l-.038.001h.002l-.044-.001c-.206 0-.398.057-.562.157l.005-.003a.73.73 0 0 0-.319.426l-.001.005-.517-.047a1.2 1.2 0 0 1 .486-.711l.004-.003a1.56 1.56 0 0 1 .932-.274h-.002q.695 0 1.139.44zm-.393 2.14q.286-.25.316-.704h-2.012v.009c0 .263.101.502.266.681l-.001-.001q.25.262.704.261l.045.001c.26 0 .498-.093.683-.248zm4.097-2.537v3.194h-.431l-1.576-2.254v2.254h-.508v-3.194h.431l1.576 2.261v-2.261zm3.328.282c.265.21.445.516.488.865l.001.006-.529.047a.9.9 0 0 0-.323-.583l-.002-.001a1 1 0 0 0-.612-.206l-.034.001h.002l-.04-.001a.98.98 0 0 0-.726.32l-.001.001q-.289.321-.29.867c-.001.546.098.662.299.871.185.195.445.316.734.316l.034-.001h-.002.028c.23 0 .443-.076.615-.203l-.003.002a.88.88 0 0 0 .323-.554l.001-.005.536.047a1.3 1.3 0 0 1-.492.847l-.003.002c-.26.198-.59.317-.947.317l-.042-.001h.002q-.698 0-1.149-.44c-.451-.44-.449-.69-.449-1.2s.153-.905.444-1.2.679-.44 1.149-.44h.035c.36 0 .692.122.955.328l-.003-.003zm1.703-.282v2.741h1.511v.453h-2.019v-3.194zm4.52.397q.443.443.444 1.205c.001.762-.145.905-.435 1.195s-.671.44-1.132.44-.82-.141-1.08-.423-.398-.653-.398-1.127v-.29h2.523a1 1 0 0 0-.315-.725 1.04 1.04 0 0 0-.694-.265l-.038.001h.002l-.044-.001c-.206 0-.398.057-.562.157l.005-.003a.73.73 0 0 0-.319.426l-.001.005-.517-.047c.073-.298.249-.546.487-.711l.004-.003a1.55 1.55 0 0 1 .938-.273h-.003c.46 0 .843.146 1.136.44zm-.394 2.14c.192-.167.294-.402.316-.704h-2.011v.009a1 1 0 0 0 .265.681l-.001-.001q.25.262.705.261l.044.001c.26 0 .498-.093.683-.248l-.002.001zm4.042.657h-.57l-.675-1.221h-.704v1.221h-.508v-3.194h1.29l.046-.001c.261 0 .5.098.681.259l-.001-.001q.276.262.277.73l.001.042c0 .193-.054.373-.148.526l.002-.004a.9.9 0 0 1-.4.335l-.006.002zm-1.956-1.674h.743a.56.56 0 0 0 .373-.142h-.001a.5.5 0 0 0 .154-.36l-.001-.034v.002l.001-.033a.52.52 0 0 0-.154-.368.58.58 0 0 0-.374-.137h-.742zm6.591-1.52-1.346 3.194h-.427l-1.341-3.194h.547l1.008 2.415 1.008-2.417zm2.946.397q.442.443.444 1.205c.002.762-.145.905-.435 1.195s-.67.44-1.132.44-.819-.141-1.08-.423-.398-.653-.398-1.127v-.29h2.524a1 1 0 0 0-.316-.725 1.04 1.04 0 0 0-.694-.265l-.038.001h.002l-.044-.001c-.206 0-.398.057-.562.157l.005-.003a.73.73 0 0 0-.319.426l-.001.005-.517-.047a1.2 1.2 0 0 1 .486-.711l.004-.003a1.55 1.55 0 0 1 .938-.273h-.002q.692 0 1.136.44zm-.393 2.14q.286-.25.316-.704h-2.012v.009c0 .263.101.502.266.681l-.001-.001q.25.262.704.261l.045.001c.26 0 .498-.093.683-.248zM9.937 28.008c.055.054.09.129.09.212v.01a.28.28 0 0 1-.09.205.295.295 0 0 1-.426 0 .28.28 0 0 1-.09-.205v-.009a.302.302 0 0 1 .517-.212zm.025.798V32h-.508v-3.194zm2.154 0q.688-.001 1.123.428c.435.429.436.679.436 1.169s-.146.88-.44 1.166a1.55 1.55 0 0 1-1.076.432L12.105 32H10.84v-3.194zm-.775.436v2.323h.766l.038.001c.285 0 .543-.118.728-.307q.288-.302.287-.858c-.001-.556-.094-.661-.287-.862a1 1 0 0 0-.715-.3l-.053.001h.002zm6.443-.436V32h-.504v-2.084l-1.012 2.058h-.329l-1.02-2.058V32h-.508v-3.194h.448l1.243 2.438 1.238-2.438zm2.358 0L21.496 32h-.556l-.29-.713h-1.443l-.295.713h-.55l1.349-3.194zm-.209.743-.529 1.285h1.057zm4.658-.743V32h-.431l-1.576-2.254V32h-.508v-3.194h.428l1.579 2.259v-2.259zm4.528 0V32h-.431l-1.577-2.254V32h-.508v-3.194h.427l1.579 2.259v-2.259zm2.353 0L32.825 32h-.555l-.29-.713h-1.444l-.294.713h-.551l1.349-3.194zm-.209.743-.529 1.285h1.054zm4.349-.743v.383l-1.664 2.358h1.7V32h-2.345v-.383l1.656-2.362h-1.614v-.448zm1.145-.798c.055.054.09.129.09.212v.01a.28.28 0 0 1-.09.205.295.295 0 0 1-.426 0 .28.28 0 0 1-.09-.204v-.009c0-.168.135-.304.303-.306.084 0 .16.036.214.093zm.025.798V32h-.508v-3.194zM40.119 32h-.572l-.675-1.221h-.704V32h-.508v-3.194h1.29l.045-.001c.261 0 .5.098.681.259l-.001-.001q.276.262.277.73l.001.042c0 .193-.054.373-.148.526l.002-.004a.9.9 0 0 1-.4.335l-.006.002zm-1.957-1.674h.743a.56.56 0 0 0 .373-.142h-.001a.5.5 0 0 0 .154-.36l-.001-.034v.002l.001-.033a.52.52 0 0 0-.154-.368.58.58 0 0 0-.374-.137h-.742zm3.113-1.52v2.741h1.511V32h-2.018v-3.194zm2.594-.798c.055.054.09.129.09.212v.01a.28.28 0 0 1-.09.205.295.295 0 0 1-.426 0 .28.28 0 0 1-.09-.205v-.009a.302.302 0 0 1 .517-.212zm.026.798V32h-.508v-3.194zm3.481 0-1.208 1.909V32h-.504v-1.285l-1.212-1.909h.589l.875 1.405.871-1.405zm1.047-.798c.055.054.09.129.09.212v.01a.28.28 0 0 1-.09.205.3.3 0 0 1-.428 0 .28.28 0 0 1-.09-.206v-.008c0-.083.034-.159.09-.213a.3.3 0 0 1 .428 0m.026.798V32h-.508v-3.194z"></path>
    <path fill="#fff" d="M16.209 12.521h-4.025l-1.03 3.379H9l3.884-11.925h2.71L19.478 15.9h-2.222zm-.506-1.662-1.517-4.878-1.5 4.878zm5.677 4.138 5.543-9.305h-5.872l.253-1.717h8.347v.903l-5.547 9.305h5.908l-.253 1.717h-8.38zM32.361 3.975h7.769l.253 1.717h-5.998v3.163h5.747l.252 1.698h-5.999v3.631h5.999l-.253 1.717h-7.77z"></path>
  </symbol>
  <symbol xmlns="http://www.w3.org/2000/svg" viewBox="0 0 31 32" id="logo-nocar">
    <path d="M2.549 2.43v22.485a3.21 3.21 0 0 0 3.212 3.212h8.584a2.57 2.57 0 0 1 1.056 1.988 2.57 2.57 0 0 1 1.056-1.988h8.577a3.21 3.21 0 0 0 3.212-3.212V2.43z"></path>
    <path fill="#fff" d="M15.401 28.739a3 3 0 0 0-.82-.918l-.008-.006-.101-.075H5.764a2.83 2.83 0 0 1-2.827-2.826V2.815h24.926v22.099a2.83 2.83 0 0 1-2.827 2.826h-8.704l-.101.075a3 3 0 0 0-.828.924z"></path>
    <path fill="#ef3340" d="M3.835 17.662h23.127v4.625H3.835z"></path>
    <path fill="#509e2f" d="M3.835 22.287v2.698a1.93 1.93 0 0 0 1.928 1.927h9.003l.338.247q.156.114.298.241.141-.126.298-.241l.338-.247h8.997a1.93 1.93 0 0 0 1.927-1.927v-2.698z"></path>
    <path fill="#ed1c24" d="M5.692 4.921h.549l.821 2.284h-.526l-.154-.47h-.856l-.157.47h-.508zM5.66 6.342h.595l-.294-.899zm1.768.459 1.187-1.477H7.458V4.92h1.761v.382L8.016 6.8h1.206v.403H7.429zm3.86-1.476h-1.229v.486h1.129v.397h-1.129v.587h1.287v.41H9.585V4.921h1.703zm1.899-.345q.128.054.217.16.073.087.117.192c.044.105.043.15.043.241q0 .163-.084.32c-.084.157-.147.179-.276.223q.16.063.228.18c.068.117.067.197.067.357v.154q0 .156.013.212a.2.2 0 0 0 .09.13v.057h-.536a1.061 1.061 0 0 1-.052-.32l-.004-.213q-.003-.217-.077-.291c-.074-.074-.141-.073-.277-.073h-.474v.896h-.474V4.92h1.111q.24.005.367.059zm-1.003.337v.613h.523a.6.6 0 0 0 .233-.038q.138-.065.137-.257 0-.208-.133-.279a.5.5 0 0 0-.224-.04h-.536zm3.508-.153a.57.57 0 0 1 .107.348q0 .209-.108.337a.5.5 0 0 1-.177.13q.178.063.268.202c.09.139.091.204.091.335a.66.66 0 0 1-.103.364.64.64 0 0 1-.426.295q-.15.031-.329.031h-1.047V4.92h1.122q.424.007.601.243zm-1.262.153v.504h.565q.151 0 .245-.057c.094-.057.094-.104.094-.2q0-.16-.125-.211a.9.9 0 0 0-.275-.036zm0 .882v.609h.564a.55.55 0 0 0 .235-.04q.152-.074.153-.285 0-.178-.148-.245a.6.6 0 0 0-.233-.039zm2.636-1.278h.549l.821 2.284h-.526l-.154-.47H16.9l-.157.47h-.508zm-.032 1.421h.595l-.294-.899zm1.768-1.421h.482v2.284h-.482zm1.305 1.417v.052q.005.265.056.373c.051.108.104.108.213.108q.162 0 .214-.118a.6.6 0 0 0 .031-.235V4.92h.486v1.59q0 .291-.101.461-.17.288-.611.288c-.442 0-.493-.078-.593-.233s-.151-.367-.151-.637v-.051zm2.19-1.417h.549l.821 2.284h-.526l-.154-.47h-.856l-.157.47h-.508zm-.031 1.421h.594l-.294-.899zm1.767-1.421h.509l.922 1.593V4.921h.452v2.284h-.486l-.945-1.62v1.62h-.452z"></path>
    <path fill="#00b5e2" d="M24.083 13.036a3.04 3.04 0 0 1-2.657 1.752 3.08 3.08 0 0 1-1.435 2.034 3.05 3.05 0 0 1-1.555.417 3.05 3.05 0 0 1-1.908-.654 3.1 3.1 0 0 1-.991-1.437 3.08 3.08 0 0 1-1.531 1.781c-.41.214-.882.327-1.363.327-.728 0-1.423-.25-1.958-.702a3.08 3.08 0 0 1-1.046-1.759 3.06 3.06 0 0 1-2.296-1.153 2.8 2.8 0 0 1-.376-.605H3.834v4.625h23.127v-4.625z"></path>
    <path fill="#0083be" d="M9.952 13.959c-.925.078-1.875-.458-2.239-1.322-.467-.968-.069-2.239.865-2.784a2.21 2.21 0 0 1 2.446.086c.536.381.848 1.003.934 1.651.017.164.009.338-.026.51a2.33 2.33 0 0 1-1.487 1.737c-.016.153-.026.33-.026.51 1.055-.286 1.919-1.245 1.98-2.351v-.493c-.043-.891-.614-1.729-1.401-2.144-1.063-.579-2.498-.329-3.285.596-.856.934-.891 2.481-.086 3.458.544.7 1.452 1.081 2.325 1.012-.009-.154 0-.319 0-.466"></path>
    <path fill="#000002" d="M14.759 9.672c.778-.312 1.703-.104 2.291.476.398.372.631.899.7 1.435.026.172.017.346-.026.51a2.34 2.34 0 0 1-1.479 1.755 5 5 0 0 0-.026.501c1.055-.286 1.919-1.253 1.971-2.351 0-.173 0-.338-.009-.502-.026-.683-.38-1.331-.891-1.78-.865-.778-2.248-.874-3.216-.233-.709.433-1.159 1.228-1.245 2.058.164.017.32.043.476.069.06-.856.64-1.651 1.453-1.936z"></path>
    <path fill="#ee2b4b" d="M23.265 9.888c-.665-.726-1.746-1.012-2.68-.734-1.055.285-1.893 1.279-1.928 2.377.147.017.294.043.441.069.078-1.029.909-1.936 1.936-2.058.995-.147 2.023.484 2.36 1.427.329.821.078 1.824-.588 2.412a2.25 2.25 0 0 1-1.694.57 2.6 2.6 0 0 1-.493-.103 2.32 2.32 0 0 1-1.496-1.772 2.3 2.3 0 0 0-.484-.104c.086 1.115.925 2.118 2.015 2.369.146.034.303.06.458.078a2.68 2.68 0 0 0 2.534-1.331c.596-.996.441-2.378-.381-3.2"></path>
    <path fill="#fbab18" d="M12.83 11.98c.173 0 .338.043.502.095.76.294 1.357.969 1.496 1.772q.246.078.493.103c-.104-1.089-.925-2.109-2.015-2.342a8 8 0 0 0-.476-.069c-.138-.026-.286-.026-.432-.035v.493c.138-.008.286-.017.432-.017"></path>
    <path fill="#008c48" d="M18.641 11.971c.164.017.329.052.484.104.761.286 1.366.951 1.496 1.772q.247.078.493.103c-.095-1.098-.917-2.118-2.015-2.351-.147-.026-.294-.052-.441-.069-.155-.017-.32-.026-.476-.035.009.164.009.329.009.502.147-.017.294-.026.45-.026"></path>
    <path fill="#fbab18" d="M13.254 16.329c-.778.242-1.669-.009-2.222-.596a2.36 2.36 0 0 1-.614-1.383c0-.172.009-.337.026-.51a2.27 2.27 0 0 1 1.487-1.737c.035-.172.043-.346.026-.51-1.072.277-1.919 1.253-2.006 2.369 0 .147-.009.312 0 .467a2.73 2.73 0 0 0 .969 1.85c.795.674 1.997.812 2.922.329a2.71 2.71 0 0 0 1.479-2.179 3 3 0 0 1-.467-.078c-.069.907-.726 1.736-1.6 1.979z"></path>
    <path fill="#008c48" d="M18.692 16.398c-1.21.173-2.412-.83-2.472-2.049 0-.164.008-.337.026-.501a2.23 2.23 0 0 1 1.479-1.755c.043-.164.052-.338.026-.51-1.081.286-1.91 1.262-2.006 2.368-.009.164-.009.32.009.484a2.74 2.74 0 0 0 1.003 1.867c.848.683 2.118.76 3.052.207a2.72 2.72 0 0 0 1.305-2.092 4 4 0 0 1-.458-.077c-.078 1.037-.926 1.945-1.963 2.057z"></path>
    <path fill="#000002" d="M15.745 13.951c-.138 0-.277.009-.424 0a2.6 2.6 0 0 1-.493-.103 2.26 2.26 0 0 1-1.496-1.772 1.7 1.7 0 0 0-.502-.095c.112 1.107.926 2.11 2.023 2.368.155.043.312.061.467.078.138.009.286.009.433.009a3 3 0 0 1-.008-.485"></path>
    <path fill="#fff" d="M15.159 21.708a1.746 1.746 0 1 1 1.255-2.96 2.096 2.096 0 1 0 0 2.426 1.74 1.74 0 0 1-1.255.532z"></path>
    <path fill="#fff" d="m17.03 21.139-.225-.634-.607.289.288-.608-.633-.225.633-.224-.288-.608.607.289.225-.633.225.633.607-.289-.288.608.633.224-.633.225.288.608-.607-.289z"></path>
  </symbol>
  <symbol xmlns="http://www.w3.org/2000/svg" viewBox="0 0 104 32" id="logo-amada">
    <path d="m33.77 20.925.635 1.679h2.814L32.226 9.668h-3.041l-4.993 12.936h2.814l.635-1.679zm-3.041-7.943 2.043 5.311h-4.085z"></path>
    <path d="m33.77 20.925.635 1.679h2.814L32.226 9.668h-3.041l-4.993 12.936h2.814l.635-1.679zm-3.041-7.943 2.043 5.311h-4.085zm24.102 9.577V9.623h-2.86l-3.813 9.713-3.813-9.713h-2.86v12.936h2.587v-6.4l2.542 6.445h3.087l2.496-6.445v6.4z"></path>
    <path d="M54.831 22.559V9.623h-2.86l-3.813 9.713-3.813-9.713h-2.86v12.936h2.587v-6.4l2.542 6.445h3.087l2.496-6.445v6.4zm13.753-1.634.635 1.679h2.814L67.04 9.668h-3.041l-4.993 12.936h2.814l.635-1.679zm-3.041-7.943 2.043 5.311h-4.085z"></path>
    <path d="m68.584 20.925.635 1.679h2.814L67.04 9.668h-3.041l-4.993 12.936h2.814l.635-1.679zm-3.041-7.943 2.043 5.311h-4.085zM88.102 16.113c0-3.54-2.905-6.445-6.445-6.445h-5.401v12.891h5.447c3.54 0 6.4-2.905 6.4-6.445zm-9.214-3.858h2.814a3.807 3.807 0 0 1 3.813 3.813 3.807 3.807 0 0 1-3.813 3.813h-2.814zM100.494 20.925l.635 1.679h2.814L98.95 9.668h-3.041l-4.993 12.936h2.814l.635-1.679zm-3.042-7.943 2.043 5.311H95.41z"></path>
    <path fill="#ed1c24" d="m17.112 22.06-7.716-4.766 7.444-.227c.272 0 .499-.227.499-.545v-5.719a.48.48 0 0 0-.227-.409L.272 0v6.173a.5.5 0 0 0 .272.454l7.308 4.494-7.217.454c-.227.091-.363.272-.363.499v5.719a.5.5 0 0 0 .272.454l16.885 10.394v-6.128c-.045-.182-.136-.363-.318-.454zM.726 11.938c.045 0 .045.045 0 0 .091.045.182 0 .182-.045v-.045l7.308-.454 8.579 5.265s.045.045.091.045l-.045-.045c-.045 0-.136 0-.136.045v.045l-7.671.227-8.17-5.038zm16.159 4.856s0-.045 0 0c.045-.045.045 0 0 0"></path>
    <path fill="#231f20" d="M55.149 27.597q0-.34-.136-.545c-.091-.136-.182-.272-.318-.409-.136-.091-.318-.182-.499-.227s-.408-.091-.635-.091c-.136 0-.272 0-.454.045s-.318.091-.454.182-.227.182-.318.318-.136.318-.136.499.045.363.136.499.227.227.363.318.318.136.545.182c.182.045.408.091.635.136s.408.091.635.136c.182.045.363.136.545.227s.272.227.363.409.136.363.136.59c0 .272-.045.454-.182.635-.091.182-.272.318-.408.409-.182.091-.363.182-.545.227-.227.045-.408.091-.59.091-.272 0-.545-.045-.817-.091s-.454-.182-.681-.318c-.182-.136-.318-.318-.454-.545-.091-.227-.182-.499-.136-.817h.318q0 .409.136.681c.091.182.227.318.363.454.182.136.363.227.59.272s.454.091.681.091c.136 0 .318 0 .454-.045.182-.045.318-.091.454-.182s.272-.182.363-.363q.136-.204.136-.545c0-.227-.045-.363-.136-.499s-.227-.227-.363-.318a2 2 0 0 0-.545-.182c-.182-.045-.408-.091-.635-.136s-.408-.091-.635-.136c-.182-.045-.363-.136-.545-.227-.136-.091-.272-.227-.363-.363s-.136-.363-.136-.59.045-.454.136-.59q.136-.272.408-.409c.182-.091.318-.182.545-.227a2.7 2.7 0 0 1 .59-.091c.272 0 .499.045.726.091s.408.136.59.272.318.272.408.454.182.409.182.681h-.318zm2.133-1.135v-.272h3.767v.272h-1.725v4.675h-.318v-4.675zm13.844-.272h.318l-1.997 2.86v2.088h-.318V29.05l-1.952-2.86h.363l1.77 2.633zm5.674 2.451c0-.363.045-.681.182-.999.091-.318.272-.59.454-.817s.454-.409.726-.545.635-.182.999-.182c.272 0 .545.045.772.136q.34.136.545.272c.136.091.272.227.363.363s.182.272.227.363c.045.136.091.227.091.318s.045.136.045.136h-.318c-.045-.227-.091-.409-.182-.545a1.1 1.1 0 0 0-.363-.409c-.136-.136-.318-.182-.499-.272-.182-.045-.363-.091-.59-.091-.318 0-.59.045-.862.182s-.454.272-.635.499-.318.454-.409.726-.136.59-.136.908.045.635.136.908.227.545.409.726c.182.227.409.363.635.499.272.136.545.182.862.182q.34 0 .681-.136t.545-.409c.136-.182.272-.363.363-.545.091-.227.136-.454.182-.681h.318c-.045.272-.091.545-.227.817-.136.227-.272.454-.454.635s-.409.318-.635.409-.499.136-.772.136c-.363 0-.681-.045-.999-.182-.272-.136-.545-.318-.726-.545s-.363-.499-.454-.817c-.227-.318-.272-.681-.272-1.044zm6.718-2.451h.318v4.675h2.814v.272h-3.132zm5.129 0h3.313v.272h-2.996v1.997h2.814v.272h-2.814v2.133h3.041v.272h-3.359zm11.257 0h.363l3.132 4.539V26.19h.318v4.948h-.363l-3.132-4.584v4.584h-.318zm-33.952 4.948h.318l-1.952-4.948H64l-1.997 4.948h.318l.454-1.18.272-.681.045-.136.136-.272.908-2.36h.045l1.044 2.769.091.272zm31.591 0h.363l-1.952-4.948h-.363l-1.952 4.948h.318l.454-1.18.272-.681.136-.409.953-2.36 1.089 2.769.091.272z"></path>
  </symbol>
</svg>
