<svg version="1.1" xmlns="http://www.w3.org/2000/svg" viewBox="0 0 32 32">
<path fill="#2E2F42" d="M31.662 23.867l-7.805 7.805q-0.343 0.312-0.796 0.312t-0.78-0.328-0.328-0.78 0.343-0.765l7.805-7.805q0.312-0.343 0.765-0.343t0.78 0.328 0.328 0.78-0.312 0.796zM21.61 28.706q-0.281 0.281-0.702 0.281t-0.702-0.281l-9.897-9.897q-0.312-0.312-0.312-0.718t0.312-0.718l7.056-7.056q0.312-0.312 0.718-0.312t0.687 0.312l9.928 9.897q0.281 0.281 0.281 0.702t-0.281 0.702zM18.769 13.315q-0.281-0.312-0.687-0.312t-0.718 0.312l-0.78 0.78 7.618 7.618q0.281 0.281 0.702 0.281t0.702-0.281l0.78-0.812zM10.277 15.625q-0.375 0.375-0.89 0.375t-0.89-0.375l-2.685-2.654q-0.905-0.937-1.733-2.107t-1.421-2.326-1.108-2.373-0.812-2.217-0.515-1.889-0.219-1.358 0.062-0.624q0.156-0.031 0.624-0.047t1.358 0.219 1.889 0.515 2.217 0.796 2.373 1.108 2.326 1.421 2.076 1.764l2.685 2.654q0.375 0.375 0.375 0.89t-0.375 0.89zM10.964 7.821q-2.341-2.31-6.15-3.965 1.374 2.466 2.997 4.121l2.685 2.654q0.375 0.375 0.89 0.375t0.89-0.375l0.749-0.718z"></path>
</svg>
