<!-- Generated by IcoMoon.io -->
<svg version="1.1" xmlns="http://www.w3.org/2000/svg" width="32" height="32" viewBox="0 0 32 32">
<path d="M25.331 2.661c0 0.256-0.128 0.545-0.321 0.738l-12.601 12.601 12.601 12.601c0.192 0.192 0.321 0.481 0.321 0.738s-0.128 0.545-0.321 0.738l-1.603 1.603c-0.192 0.192-0.481 0.321-0.738 0.321s-0.545-0.128-0.738-0.321l-14.942-14.942c-0.192-0.192-0.321-0.481-0.321-0.738s0.128-0.545 0.321-0.738l14.942-14.942c0.192-0.192 0.481-0.321 0.738-0.321s0.545 0.128 0.738 0.321l1.603 1.603c0.192 0.192 0.321 0.449 0.321 0.738z"></path>
</svg>
