<!-- Generated by IcoMoon.io -->
<svg version="1.1" xmlns="http://www.w3.org/2000/svg" width="32" height="32" viewBox="0 0 32 32">
<path d="M9.953 1.421c1.564-0.072 2.063-0.088 6.047-0.088s4.483 0.017 6.045 0.088 2.629 0.32 3.563 0.681c1.016 0.39 1.883 0.966 2.596 1.692l0.001 0.001c0.728 0.714 1.303 1.58 1.674 2.547l0.017 0.049c0.363 0.933 0.611 2 0.683 3.56 0.072 1.567 0.088 2.065 0.088 6.048s-0.017 4.483-0.088 6.047c-0.071 1.56-0.32 2.627-0.683 3.56-0.389 1.017-0.964 1.883-1.689 2.597l-0.001 0.001-0.001 0.001c-0.715 0.727-1.581 1.302-2.548 1.674l-0.049 0.017c-0.933 0.363-2 0.611-3.56 0.683-1.565 0.072-2.064 0.088-6.048 0.088s-4.483-0.017-6.047-0.088c-1.56-0.071-2.627-0.32-3.56-0.683-1.016-0.389-1.883-0.964-2.597-1.689l-0.001-0.001-0.001-0.001c-0.716-0.702-1.284-1.552-1.658-2.499l-0.017-0.049-0.017-0.049c-0.361-0.933-0.609-2-0.681-3.56-0.072-1.567-0.088-2.065-0.088-6.048s0.017-4.483 0.088-6.045 0.32-2.629 0.681-3.563c0.391-1.015 0.966-1.881 1.691-2.595l0.002-0.002c0.702-0.715 1.551-1.284 2.498-1.658l0.098-0.034c0.933-0.361 2-0.609 3.56-0.681zM21.927 4.061c-1.547-0.071-2.011-0.085-5.927-0.085s-4.38 0.015-5.927 0.085c-1.431 0.065-2.207 0.304-2.724 0.505-0.661 0.25-1.224 0.623-1.686 1.095l-0.001 0.001c-0.467 0.454-0.837 1.007-1.075 1.624l-0.011 0.031-0.010 0.031c-0.201 0.517-0.44 1.293-0.505 2.724-0.071 1.547-0.085 2.011-0.085 5.927s0.015 4.38 0.085 5.927c0.065 1.431 0.304 2.207 0.505 2.724 0.248 0.661 0.622 1.225 1.095 1.686l0.001 0.001c0.462 0.475 1.026 0.848 1.656 1.086l0.031 0.010c0.517 0.201 1.293 0.44 2.724 0.505 1.547 0.071 2.009 0.085 5.927 0.085s4.38-0.015 5.927-0.085c1.431-0.065 2.207-0.304 2.724-0.505 0.661-0.25 1.224-0.623 1.686-1.095l0.001-0.001c0.475-0.462 0.848-1.026 1.086-1.656l0.010-0.031c0.201-0.517 0.44-1.293 0.505-2.724 0.071-1.547 0.085-2.011 0.085-5.927s-0.015-4.38-0.085-5.927c-0.065-1.431-0.304-2.207-0.505-2.724-0.25-0.661-0.623-1.224-1.095-1.686l-0.001-0.001c-0.455-0.466-1.007-0.835-1.624-1.075l-0.031-0.011-0.031-0.010c-0.517-0.201-1.293-0.44-2.724-0.505zM14.127 20.521c0.555 0.237 1.201 0.375 1.879 0.375 2.702 0 4.892-2.19 4.892-4.892 0-1.353-0.55-2.578-1.438-3.464l-0-0c-0.885-0.883-2.107-1.429-3.456-1.429-2.702 0-4.893 2.191-4.893 4.893 0 2.013 1.215 3.742 2.952 4.493l0.032 0.012zM10.669 10.669c1.356-1.318 3.209-2.13 5.252-2.13 4.164 0 7.54 3.376 7.54 7.54 0 2.043-0.812 3.896-2.132 5.254l0.002-0.002c-1.356 1.318-3.209 2.13-5.252 2.13-4.164 0-7.54-3.376-7.54-7.54 0-2.043 0.812-3.896 2.132-5.254l-0.002 0.002zM25.211 9.584c0.345-0.326 0.559-0.786 0.559-1.297 0-0.985-0.798-1.783-1.783-1.783-0.51 0-0.97 0.214-1.295 0.558l-0.001 0.001-0.001 0.001c-0.296 0.318-0.478 0.745-0.478 1.215 0 0.985 0.798 1.783 1.783 1.783 0.471 0 0.899-0.182 1.217-0.48l-0.001 0.001-0.001 0.001z"></path>
</svg>
