<!-- Generated by IcoMoon.io -->
<svg version="1.1" xmlns="http://www.w3.org/2000/svg" width="32" height="32" viewBox="0 0 32 32">
<path d="M12.572 11.959h4.952v2.467c0.713-1.419 2.543-2.693 5.291-2.693 5.268 0 6.519 2.824 6.519 8.005v9.596h-5.333v-8.416c0-2.951-0.713-4.615-2.529-4.615-2.519 0-3.565 1.793-3.565 4.613v8.417h-5.333v-17.375zM3.427 29.107h5.333v-17.375h-5.333zM9.524 6.067v0.002c0 0.939-0.384 1.789-1.004 2.401-0.618 0.616-1.472 0.997-2.414 0.997-0.002 0-0.003 0-0.005 0h-0.009c-0.945-0-1.801-0.381-2.424-0.996l0 0c-0.62-0.613-1.004-1.463-1.004-2.404s0.385-1.792 1.005-2.404l0-0c0.62-0.616 1.474-0.996 2.417-0.996 0.002 0 0.004 0 0.006 0h0.002c0 0 0 0 0 0 0.945 0 1.802 0.38 2.425 0.996l-0-0c0.62 0.613 1.004 1.464 1.004 2.404 0 0 0 0 0 0v0z"></path>
</svg>
