<!-- Generated by IcoMoon.io -->
<svg version="1.1" xmlns="http://www.w3.org/2000/svg" width="32" height="32" viewBox="0 0 32 32">
<path d="M12.68 10.9c0.036-0.020 0.079-0.032 0.125-0.032s0.089 0.012 0.126 0.033l-0.001-0.001 8.28 4.8c0.075 0.044 0.124 0.124 0.124 0.216s-0.049 0.172-0.123 0.215l-0.001 0.001-8.28 4.8c-0.036 0.021-0.080 0.034-0.126 0.034-0.138 0-0.25-0.112-0.25-0.25 0-0 0-0 0-0v0-9.6c0-0.088 0.048-0.172 0.126-0.216z"></path>
<path d="M22.608 4.14l-0.34-0.014c-2.14-0.086-4.26-0.114-5.42-0.124l-0.87-0.004-0.486 0.002c-1.96 0.016-9.86 0.112-12.040 0.746-0.678 0.196-1.298 0.58-1.794 1.112l0.003-0.003c-0.489 0.527-0.85 1.174-1.041 1.923-0.752 4.72-1.044 11.92 0.020 16.46l0.007 0.030c0.184 0.718 0.545 1.365 1.031 1.89l0.002 0.002c0.474 0.509 1.080 0.895 1.792 1.11 0.98 0.284 3.14 0.46 5.38 0.564l0.592 0.026 0.62 0.024-0.32-0.009c1.708 0.062 3.422 0.101 5.22 0.115l1.076 0.004c1.080-0.004 10.040-0.044 12.38-0.726l0.028-0.007c0.683-0.207 1.289-0.593 1.766-1.105l-0.003 0.003c0.489-0.527 0.85-1.174 1.041-1.923 0.792-4.72 1.036-11.92-0.020-16.48-0.182-0.726-0.542-1.388-1.038-1.92-0.498-0.532-1.116-0.916-1.794-1.112-1.040-0.304-3.4-0.482-5.8-0.584zM28.74 7.2c0.256 0.274 0.452 0.626 0.556 1.028 0.964 4.18 0.762 11 0.006 15.58-0.106 0.38-0.298 0.714-0.54 0.978-0.237 0.255-0.537 0.447-0.876 0.552l-0.014 0.004h-0.004c-0.368 0.108-1.178 0.228-2.38 0.33-1.14 0.096-2.48 0.162-3.8 0.212-2.62 0.094-5.1 0.104-5.64 0.106l-1.068-0.006c-1.77-0.014-3.463-0.051-5.15-0.113l0.31 0.009-0.608-0.022-0.588-0.026c-1.106-0.052-2.16-0.12-3.060-0.206-0.936-0.092-1.556-0.194-1.852-0.28h-0.006c-0.352-0.109-0.652-0.303-0.887-0.557l-0.001-0.001c-0.26-0.283-0.454-0.63-0.554-1.015l-0.004-0.017c-0.966-4.14-0.724-10.96-0.004-15.58 0.108-0.378 0.3-0.71 0.54-0.97 0.236-0.255 0.536-0.447 0.874-0.552l0.014-0.004h0.004c0.336-0.1 1.062-0.212 2.14-0.31 1.032-0.094 2.24-0.166 3.48-0.216 1.678-0.072 3.727-0.123 5.784-0.14l0.076-0h0.476l0.858 0.004c1.154 0.008 3.24 0.036 5.34 0.12l0.34 0.014c1.18 0.050 2.34 0.12 3.3 0.21 1.020 0.096 1.7 0.204 2.020 0.296h0.002c0.352 0.109 0.652 0.303 0.887 0.557l0.001 0.001z"></path>
</svg>
